<svg xmlns="http://www.w3.org/2000/svg" width="17.703" height="17.703" viewBox="0 0 17.703 17.703">
  <g id="Group_1172" data-name="Group 1172" transform="translate(-94.117 -353.751)">
    <g id="Group_1144" data-name="Group 1144" transform="translate(94.117 353.751)">
      <path id="Path_2566" data-name="Path 2566" d="M102.969,355.346c2.364,0,2.643.009,3.577.052a4.888,4.888,0,0,1,1.643.3,2.934,2.934,0,0,1,1.68,1.68,4.9,4.9,0,0,1,.3,1.643c.042.933.051,1.213.051,3.577s-.009,2.643-.051,3.577a4.9,4.9,0,0,1-.3,1.643,2.929,2.929,0,0,1-1.68,1.68,4.9,4.9,0,0,1-1.643.3c-.933.042-1.213.052-3.577.052s-2.643-.009-3.577-.052a4.9,4.9,0,0,1-1.643-.3,2.929,2.929,0,0,1-1.68-1.68,4.9,4.9,0,0,1-.3-1.643c-.042-.933-.051-1.213-.051-3.577s.009-2.643.051-3.577a4.9,4.9,0,0,1,.3-1.643,2.934,2.934,0,0,1,1.68-1.68,4.884,4.884,0,0,1,1.643-.3c.933-.043,1.213-.052,3.577-.052m0-1.6c-2.4,0-2.705.01-3.65.053a6.482,6.482,0,0,0-2.149.412,4.521,4.521,0,0,0-2.588,2.588,6.485,6.485,0,0,0-.412,2.148c-.043.944-.053,1.246-.053,3.65s.01,2.705.053,3.65a6.482,6.482,0,0,0,.412,2.149,4.525,4.525,0,0,0,2.588,2.589,6.5,6.5,0,0,0,2.149.411c.944.043,1.246.053,3.65.053s2.705-.01,3.65-.053a6.5,6.5,0,0,0,2.149-.411,4.528,4.528,0,0,0,2.589-2.589,6.5,6.5,0,0,0,.411-2.149c.043-.944.053-1.246.053-3.65s-.01-2.705-.053-3.65a6.5,6.5,0,0,0-.411-2.148,4.525,4.525,0,0,0-2.589-2.588,6.482,6.482,0,0,0-2.149-.412c-.944-.043-1.246-.053-3.65-.053" transform="translate(-94.117 -353.751)"/>
      <path id="Path_2567" data-name="Path 2567" d="M104.988,360.076a4.546,4.546,0,1,0,4.546,4.546,4.546,4.546,0,0,0-4.546-4.546m0,7.5a2.951,2.951,0,1,1,2.951-2.951,2.95,2.95,0,0,1-2.951,2.951" transform="translate(-96.136 -355.77)"/>
      <path id="Path_2568" data-name="Path 2568" d="M114.624,359.315a1.062,1.062,0,1,1-1.062-1.063,1.063,1.063,0,0,1,1.062,1.063" transform="translate(-99.985 -355.188)"/>
    </g>
  </g>
</svg>
