<svg xmlns="http://www.w3.org/2000/svg" width="38.234" height="38.234" viewBox="0 0 38.234 38.234">
  <g id="Group_1153" data-name="Group 1153" transform="translate(-94.117 -353.751)">
    <g id="Group_1144" data-name="Group 1144" transform="translate(94.117 353.751)">
      <path id="Path_2566" data-name="Path 2566" d="M113.234,357.2c5.1,0,5.709.019,7.725.112a10.556,10.556,0,0,1,3.549.657,6.337,6.337,0,0,1,3.629,3.629,10.576,10.576,0,0,1,.659,3.549c.091,2.016.11,2.62.11,7.725s-.019,5.709-.11,7.725a10.575,10.575,0,0,1-.659,3.549,6.326,6.326,0,0,1-3.629,3.629,10.587,10.587,0,0,1-3.549.659c-2.016.091-2.62.112-7.725.112s-5.709-.021-7.725-.112a10.579,10.579,0,0,1-3.549-.659,6.326,6.326,0,0,1-3.629-3.629,10.575,10.575,0,0,1-.659-3.549c-.091-2.016-.11-2.62-.11-7.725s.019-5.709.11-7.725a10.576,10.576,0,0,1,.659-3.549,6.337,6.337,0,0,1,3.629-3.629,10.548,10.548,0,0,1,3.549-.657c2.016-.093,2.62-.112,7.725-.112m0-3.445c-5.192,0-5.843.022-7.882.115a14,14,0,0,0-4.64.89,9.764,9.764,0,0,0-5.59,5.59,14.007,14.007,0,0,0-.89,4.64c-.093,2.039-.115,2.691-.115,7.882s.022,5.843.115,7.882a14,14,0,0,0,.89,4.64,9.772,9.772,0,0,0,5.59,5.592,14.04,14.04,0,0,0,4.64.888c2.039.093,2.691.115,7.882.115s5.843-.022,7.882-.115a14.04,14.04,0,0,0,4.64-.888,9.78,9.78,0,0,0,5.592-5.592,14.042,14.042,0,0,0,.888-4.64c.093-2.039.115-2.691.115-7.882s-.022-5.843-.115-7.882a14.049,14.049,0,0,0-.888-4.64,9.772,9.772,0,0,0-5.592-5.59,14,14,0,0,0-4.64-.89c-2.039-.093-2.691-.115-7.882-.115" transform="translate(-94.117 -353.751)"/>
      <path id="Path_2567" data-name="Path 2567" d="M110.259,360.076a9.817,9.817,0,1,0,9.817,9.817,9.819,9.819,0,0,0-9.817-9.817m0,16.19a6.372,6.372,0,1,1,6.372-6.372,6.372,6.372,0,0,1-6.372,6.372" transform="translate(-91.142 -350.776)"/>
      <path id="Path_2568" data-name="Path 2568" d="M117.088,360.547a2.294,2.294,0,1,1-2.294-2.3,2.295,2.295,0,0,1,2.294,2.3" transform="translate(-85.471 -351.634)"/>
    </g>
  </g>
</svg>
